<?xml version="1.0" encoding="UTF-8" standalone="no"?>
<!-- Created with Inkscape (http://www.inkscape.org/) -->

<svg
   width="240mm"
   height="160mm"
   viewBox="0 0 240 160"
   version="1.1"
   id="svg1"
   inkscape:version="1.4.2 (f4327f4, 2025-05-13)"
   sodipodi:docname="描画.svg"
   inkscape:export-filename="tsukuyomi-switch\src\assets\images\title.png"
   inkscape:export-xdpi="96"
   inkscape:export-ydpi="96"
   xmlns:inkscape="http://www.inkscape.org/namespaces/inkscape"
   xmlns:sodipodi="http://sodipodi.sourceforge.net/DTD/sodipodi-0.dtd"
   xmlns:xlink="http://www.w3.org/1999/xlink"
   xmlns="http://www.w3.org/2000/svg"
   xmlns:svg="http://www.w3.org/2000/svg">
  <sodipodi:namedview
     id="namedview1"
     pagecolor="#ffffff"
     bordercolor="#000000"
     borderopacity="0.25"
     inkscape:showpageshadow="2"
     inkscape:pageopacity="0.0"
     inkscape:pagecheckerboard="0"
     inkscape:deskcolor="#d1d1d1"
     inkscape:document-units="mm"
     inkscape:zoom="0.34075127"
     inkscape:cx="159.94071"
     inkscape:cy="683.78323"
     inkscape:window-width="1920"
     inkscape:window-height="974"
     inkscape:window-x="-11"
     inkscape:window-y="-11"
     inkscape:window-maximized="1"
     inkscape:current-layer="g12">
    <inkscape:page
       x="0"
       y="0"
       width="240"
       height="160"
       id="page2"
       margin="0"
       bleed="0" />
  </sodipodi:namedview>
  <defs
     id="defs1">
    <pattern
       inkscape:collect="always"
       xlink:href="#Strips1_1"
       preserveAspectRatio="xMidYMid"
       id="pattern3"
       patternTransform="matrix(0.42426407,0.42426407,-0.42426407,0.42426407,0,0)"
       x="0"
       y="-2" />
    <pattern
       inkscape:collect="always"
       patternUnits="userSpaceOnUse"
       width="2"
       height="10"
       patternTransform="translate(0,0) scale(2,2)"
       preserveAspectRatio="xMidYMid"
       id="Strips1_1"
       style="fill:#000000"
       inkscape:stockid="Stripes 01 (1:1)"
       inkscape:isstock="true"
       inkscape:label="ストライプ 01 (1:1)">
      <rect
   style="stroke:none"
   x="0"
   y="-0.5"
   width="1"
   height="11"
   id="rect134" />

    </pattern>
  </defs>
  <path
     d="m 32.144481,66.207454 c -0.370505,-1.276184 -1.843146,-5.108786 -2.7432,-6.9596 l -3.9116,1.2954 c 0.8128,1.7018 2.2098,5.3594 2.7178,7.0612 z m 3.937,7.2644 c 2.0828,-2.7686 3.429,-7.0104 4.1148,-9.5504 0.1778,-0.6604 0.4572,-1.6256 0.787399,-2.3876 l -4.648199,-1.3462 c -0.4064,3.9116 -1.9812,8.4582 -3.8354,10.795 -2.6162,3.2766 -6.477,5.5118 -9.8552,6.4516 l 3.4798,3.6322 c 3.6322,-1.4224 7.2644,-4.0386 9.9568,-7.5946 z m -10.6172,-5.334 c -0.505817,-1.563435 -2.180856,-5.655183 -2.9718,-7.2898 l -4.0132,1.397 c 0.7874,1.4986 2.413,5.6896 2.9718,7.366 z m 34.874199,6.096 c 2.3368,-2.8702 3.556,-6.223 4.2418,-8.3312 0.254,-0.762 0.7112,-1.6256 1.0414,-2.1844 l -3.0988,-2.0066 c -0.6604,0.2032 -1.7018,0.381 -2.54,0.381 h -3.8862 c 0.381,-0.5842 0.9652,-1.6764 1.5494,-2.4892 l -4.572,-1.524 c -0.2794,0.9906 -0.9652,2.4384 -1.4224,3.1496 -1.3462,2.1336 -3.2258,5.1308 -7.7216,7.8994 l 3.5052,2.6924 c 2.767122,-1.9286 4.967584,-4.397265 6.3246,-6.1214 h 6.1468 c -0.3302,1.651 -1.778,4.4196 -3.3782,6.1976 -2.159,2.413 -4.6482,4.6228 -10.1346,6.2992 l 3.7084,3.4036 c 4.7752,-1.9558 7.7724,-4.3434 10.2362,-7.366 z m 29.3624,4.318 v -15.7988 c 0,-0.7366 0,-1.7018 0.0254,-2.0828 -0.5334,0.0508 -1.778,0.0762 -2.54,0.0762 h -11.176 c -1.3462,0 -3.2766,-0.0762 -4.2418,-0.1524 v 4.191 c 0.889,-0.0508 2.8956,-0.1016 4.2418,-0.1016 h 9.398 v 3.2258 h -9.017 c -1.2446,0 -2.7686,-0.0508 -3.7338,-0.127 v 4.0894 c 0.4572,0 1.27,-0.0254 2.1082,-0.0254 h 10.6426 v 3.556 h -11.2268 c -1.1684,0 -2.2098,-0.0508 -2.7432,-0.1016 v 4.2672 c 0.5588,-0.0508 1.8542,-0.1016 2.7178,-0.1016 h 11.2522 c -0.0254,0.4826 -0.0254,0.9906 -0.0254,1.2954 h 4.3434 c 0,-0.5334 -0.0254,-1.6764 -0.0254,-2.2098 z m 24.8666,-16.3068 c -1.4478,-0.508 -3.81,-1.1176 -6.2738,-1.6764 l -0.2794,-0.0762 c -0.127,-0.0254 -0.2794,-0.0508 -0.4064,-0.0762 l -0.3048,-0.0762 c -0.508,-0.1016 -1.0414,-0.2286 -1.5494,-0.3302 l -0.2794,-0.0508 c -1.9304,-0.381 -3.7338,-0.7112 -4.9784,-0.8382 l -1.4224,3.7846 c 1.524,0.2032 3.683,0.6096 5.8928,1.0922 l 0.2794,0.0762 c 0.1778,0.0508 0.381,0.0762 0.5588,0.127 l 0.2794,0.0762 c 0.0508,0 0.1016,0 0.1524,0.0254 l 0.2794,0.0762 c 2.5908,0.6096 5.0546,1.27 6.4516,1.8034 z m -1.7272,6.985 c -1.6002,-0.5334 -3.9878,-1.1684 -6.4516,-1.7526 l -0.2794,-0.0508 c -0.1016,-0.0254 -0.1778,-0.0508 -0.2794,-0.0762 l -0.2794,-0.0508 -0.2794,-0.0508 c -2.1336,-0.4826 -4.2672,-0.9144 -5.8674,-1.1938 l -1.4478,3.8354 c 1.6002,0.2794 3.683,0.6858 5.7404,1.1684 l 0.2794,0.0762 c 0.0762,0 0.1778,0.0254 0.2794,0.0508 l 0.2794,0.0762 c 2.6416,0.635 5.2324,1.3462 6.7564,1.905 z m 1.143,7.874 c -2.032,-0.7112 -5.461,-1.651 -8.89,-2.4384 l -0.4064,-0.1016 -0.2794,-0.0508 c -0.0508,-0.0254 -0.0762,-0.0254 -0.127,-0.0508 l -0.2794,-0.0508 c -0.127,-0.0254 -0.2794,-0.0508 -0.4064,-0.1016 l -0.2794,-0.0508 c -1.905,-0.4064 -3.7084,-0.762 -5.1562,-0.9652 l -1.5748,3.9624 c 1.7018,0.254 4.1148,0.7366 6.5786,1.27 l 0.2794,0.0762 c 0.2032,0.0508 0.381,0.0762 0.5842,0.127 l 0.2794,0.0508 0.2794,0.0762 0.2794,0.0762 c 0.0508,0 0.0762,0.0254 0.127,0.0254 l 0.2794,0.0762 c 2.7686,0.6604 5.3594,1.3716 6.985,2.0066 z m 28.2956,0.6858 c -0.9398,-1.143 -2.54,-2.9464 -4.2418,-4.6736 l -0.1778,-0.2032 c -0.7874,-0.762 -1.6002,-1.524 -2.3622,-2.1844 1.651,-2.286 2.8448,-4.7752 3.683,-6.6548 0.2794,-0.635 0.8636,-1.6256 1.0922,-1.9558 l -2.6162,-1.9304 c -0.5842,0.2032 -1.6764,0.381 -2.9464,0.381 h -8.3058 c -0.7366,0 -2.4384,-0.0762 -3.302,-0.2032 v 4.5466 c 0.7112,-0.0508 2.159,-0.2286 3.302,-0.2286 h 7.62 c -0.5334,1.5748 -1.7526,3.7084 -3.4036,5.588 -2.2606,2.5146 -6.1722,5.715 -10.287,7.2136 l 3.2766,3.429 c 2.4892,-1.2192 4.9022,-2.9464 7.0866,-4.9022 l 0.1778,-0.1778 c 0.6604,-0.6096 1.2954,-1.2192 1.905,-1.8542 0.2286,0.2286 0.4572,0.4318 0.6604,0.6604 l 0.2032,0.1778 c 0.8128,0.8636 1.6002,1.7272 2.3368,2.6162 l 0.1778,0.1778 c 0.1524,0.2032 0.3048,0.4064 0.4826,0.6096 l 0.1524,0.1778 c 0.6858,0.8636 1.3208,1.7018 1.905,2.54 z m 18.034,-10.6172 c 3.33398,-2.222652 6.40918,-5.291582 6.604,-5.4864 l -3.3782,-3.2512 c -1.6002,1.9304 -4.699,4.699 -7.2644,6.2738 -2.8448,1.7272 -6.223,3.302 -10.8458,4.4704 l 1.9558,4.0132 c 0.5334,-0.1524 1.0668,-0.3302 1.6002,-0.508 l 0.2286,-0.0762 c 0.6604,-0.2286 1.2954,-0.4572 1.9304,-0.7112 l 0.254,-0.1016 c 1.524,-0.635 3.0226,-1.3208 4.3434,-2.032 v 7.366 c 0,1.2192 -0.1016,3.048 -0.2032,3.7338 h 4.9784 c -0.2032,-0.6858 -0.2032,-2.3876 -0.2032,-3.6068 z m 24.4602,2.6416 c -0.37523,-1.232891 -1.58545,-4.516541 -2.1336,-5.715 l -3.7084,1.2192 c 0.6858,1.4224 1.7526,4.4958 2.1082,5.7658 z m 3.2004,5.8928 c 1.6764,-2.1844 2.6162,-4.7498 3.2766,-7.1882 0.1778,-0.6096 0.3556,-1.3208 0.7112,-2.3114 l -4.3688,-1.4478 c -0.2286,3.1496 -1.4224,6.6294 -3.0988,8.7376 -2.1082,2.667 -5.6642,4.6228 -8.3566,5.3086 l 3.2766,3.4544 c 3.048,-1.1684 6.1976,-3.4544 8.5598,-6.5532 z m -8.7122,-4.318 c -0.508,-1.4732 -1.6764,-4.4958 -2.3876,-5.9182 l -3.7592,1.3462 c 0.6858,1.2192 1.905,4.6482 2.3368,6.0198 z m 30.607,-0.4572 h 6.1468 c 0.7366,0 1.7272,0.0762 2.4892,0.127 v -4.1402 c -0.5842,0.0508 -2.032,0.1524 -2.5654,0.1524 h -5.9182 v -3.3528 c 1.0414,-0.1524 1.9812,-0.3556 2.921,-0.5842 1.61059,-0.381888 -0.44757,0.09615 3.175,-0.7874 l -2.5654,-3.4798 c -1.2954,0.635 -3.556,1.143 -6.2484,1.5494 -2.5146,0.4064 -5.9182,0.4572 -8.001,0.4572 h -0.4826 -0.1778 l 0.9652,3.683 c 1.143,-0.0254 2.7686,-0.1016 4.4704,-0.2032 0.65164,-0.03343 1.30709,-0.06022 1.9558,-0.127 v 2.8448 h -6.731 c -0.8128,0 -1.7526,-0.0762 -2.5146,-0.1524 v 4.1402 c 0.6858,-0.0508 1.778,-0.127 2.54,-0.127 h 6.4008 c -0.6096,3.302 -2.4638,5.9182 -6.223,7.62 l 3.9878,2.7686 c 4.191,-2.5654 5.8928,-6.3246 6.3754,-10.3886 z"
     id="path2"
     style="font-weight:900;font-size:96px;font-family:'Glow Sans TC';-inkscape-font-specification:'Glow Sans TC Heavy';white-space:pre;display:none;fill:#ff7f7e;stroke:#000000;stroke-width:0.79375;stroke-linecap:round;stroke-linejoin:round"
     aria-label="ツクヨミスイッチ"
     sodipodi:nodetypes="ccccccccccccccccccccccsccccccccccccsscssccsccsccsccsccscccsccccccccccccccccccccccccccccccccccccccccccccccccccccccccccssccscccccccccccccccccccccscsccsccsccccccccccccccccccccsccsccccccsccccccsccscccc"
     inkscape:label="sub" />
  <g
     inkscape:label="Layer 1"
     inkscape:groupmode="layer"
     id="layer1"
     style="display:inline">
    <path
       id="rect3"
       style="display:inline;fill:#df0000;fill-opacity:1;stroke-width:0.79375;stroke-linecap:round;stroke-linejoin:round;stroke-opacity:0"
       d="m 212.05131,60.366691 c -0.84315,0.413308 -2.09522,0.773016 -3.60909,1.085722 v 10.979691 h 6.07302 c 0.7366,0 1.72725,0.07581 2.48925,0.126608 v -4.140316 c -0.5842,0.0508 -2.03233,0.152445 -2.56573,0.152445 h -5.91799 v -3.352766 c 1.0414,-0.1524 1.98095,-0.355344 2.92075,-0.583944 1.61059,-0.381888 -0.44757,0.096 3.175,-0.787549 z m -184.150004,0.381372 -3.911389,1.295012 c 0.8128,1.7018 2.209664,5.359784 2.717664,7.061584 l 3.93671,-1.397331 C 30.273786,66.431144 28.80136,62.598877 27.901306,60.748063 Z m 78.470144,1.217497 -0.88677,4.02456 c 2.41618,0.577844 4.6702,1.190796 5.98258,1.691887 l 1.60042,-3.936711 c -1.4478,-0.508 -3.81023,-1.1181 -6.27403,-1.6769 l -0.27957,-0.07596 c -0.0451,-0.009 -0.0929,-0.01786 -0.14211,-0.02687 -1.7e-4,-3.1e-5 -3.5e-4,3.1e-5 -5.2e-4,0 z m -18.145144,0.204639 c -0.5334,0.0508 -1.777896,0.07648 -2.539896,0.07648 h -4.831747 v 3.93671 h 3.05356 v 3.225643 h -3.05356 v 3.937228 h 3.05356 v 3.555855 h -3.05356 v 4.064351 h 3.05356 c -0.0254,0.4826 -0.02532,0.990212 -0.02532,1.295012 h 4.343404 c 0,-0.5334 -0.02532,-1.676285 -0.02532,-2.209685 V 64.253276 c 0,-0.7366 -7.9e-5,-1.702077 0.02532,-2.083077 z m -67.233622,0.177766 -4.013192,1.397331 c 0.7874,1.4986 2.412595,5.689559 2.971395,7.365959 l 4.013192,-1.473295 c -0.505817,-1.563435 -2.180451,-5.655378 -2.971395,-7.289995 z m 39.427567,1.01906 c -0.60201,0.130667 -1.324081,0.225826 -1.937349,0.225826 h -3.886068 l -2.36523,3.642671 c 0.0096,-0.0121 0.01895,-0.02414 0.02842,-0.03617 h 6.146912 c -0.0024,0.01213 -0.0052,0.02444 -0.0078,0.03669 z m 120.719249,2.232422 -3.7083,1.219047 c 0.6858,1.4224 1.75228,4.495539 2.10788,5.765539 l 3.73414,-1.26969 c -0.37523,-1.232891 -1.58557,-4.516437 -2.13372,-5.714896 z m -5.76606,1.371492 -3.75894,1.346171 c 0.6858,1.2192 1.90501,4.648188 2.33681,6.019788 l 3.8101,-1.447974 c -0.508,-1.4732 -1.67677,-4.495585 -2.38797,-5.917985 z m -69.39576,2.269112 -0.88935,4.034379 c 1.87587,0.485988 3.57911,0.980752 4.70255,1.39268 l 1.54926,-3.937227 c -1.36288,-0.454295 -3.29662,-0.982292 -5.36246,-1.489832 z m 28.02774,2.995683 -3.23132,3.75946 c 0.17029,-0.170172 0.33888,-0.341768 0.50539,-0.515214 0.2286,0.2286 0.45723,0.431825 0.66043,0.660425 l 0.20309,0.177767 c 0.8128,0.8636 1.6002,1.726861 2.3368,2.615861 l 0.17777,0.177767 c 0.1524,0.2032 0.30486,0.406582 0.48266,0.609782 l 0.15244,0.177767 c 0.6858,0.8636 1.3206,1.701697 1.9048,2.539897 l 3.58117,-3.149162 c -0.9398,-1.143 -2.5398,-2.946417 -4.2416,-4.673617 l -0.17776,-0.203605 c -0.78459,-0.759277 -1.59423,-1.518366 -2.35387,-2.177128 z m 20.23546,2.939356 v 3.454569 c 0,1.2192 -0.10149,3.047822 -0.20309,3.733622 h 4.97851 c -0.2032,-0.6858 -0.2036,-2.387815 -0.2036,-3.607015 V 75.17509 Z m -48.81614,1.425236 -0.90692,4.114477 c 2.48291,0.608051 4.75989,1.248712 6.23838,1.826245 l 1.72702,-3.937227 c -1.66869,-0.584044 -4.27923,-1.322125 -7.05848,-2.003495 z"
       inkscape:label="red" />
    <path
       id="path13"
       style="display:inline;fill:#00ece7;fill-opacity:1;stroke-width:0.79375;stroke-linecap:round;stroke-linejoin:round;stroke-opacity:0"
       d="m 213.55131,58.866691 c -0.84315,0.413308 -2.09522,0.773016 -3.60909,1.085722 v 10.979691 h 6.07302 c 0.7366,0 1.72725,0.07581 2.48925,0.126608 v -4.140316 c -0.5842,0.0508 -2.03233,0.152445 -2.56573,0.152445 h -5.91799 v -3.352766 c 1.0414,-0.1524 1.98095,-0.355344 2.92075,-0.583944 1.61059,-0.381888 -0.44757,0.096 3.175,-0.787549 z m -184.150004,0.381372 -3.911389,1.295012 c 0.8128,1.7018 2.209664,5.359784 2.717664,7.061584 l 3.93671,-1.397331 C 31.773786,64.931144 30.30136,61.098877 29.401306,59.248063 Z m 78.470144,1.217497 -0.88677,4.02456 c 2.41618,0.577844 4.6702,1.190796 5.98258,1.691887 l 1.60042,-3.936711 c -1.4478,-0.508 -3.81023,-1.1181 -6.27403,-1.6769 l -0.27957,-0.07596 c -0.0451,-0.009 -0.0929,-0.01786 -0.14211,-0.02687 -1.7e-4,-3.1e-5 -3.5e-4,3.1e-5 -5.2e-4,0 z m -18.145144,0.204639 c -0.5334,0.0508 -1.777896,0.07648 -2.539896,0.07648 h -4.831747 v 3.93671 h 3.05356 v 3.225643 h -3.05356 v 3.937228 h 3.05356 v 3.555855 h -3.05356 v 4.064351 h 3.05356 c -0.0254,0.4826 -0.02532,0.990212 -0.02532,1.295012 h 4.343404 c 0,-0.5334 -0.02532,-1.676285 -0.02532,-2.209685 V 62.753276 c 0,-0.7366 -7.9e-5,-1.702077 0.02532,-2.083077 z m -67.233622,0.177766 -4.013192,1.397331 c 0.7874,1.4986 2.412595,5.689559 2.971395,7.365959 l 4.013192,-1.473295 c -0.505817,-1.563435 -2.180451,-5.655378 -2.971395,-7.289995 z m 39.427567,1.01906 c -0.60201,0.130667 -1.324081,0.225826 -1.937349,0.225826 h -3.886068 l -2.36523,3.642671 c 0.0096,-0.0121 0.01895,-0.02414 0.02842,-0.03617 h 6.146912 c -0.0024,0.01213 -0.0052,0.02444 -0.0078,0.03669 z m 120.719249,2.232422 -3.7083,1.219047 c 0.6858,1.4224 1.75228,4.495539 2.10788,5.765539 l 3.73414,-1.26969 c -0.37523,-1.232891 -1.58557,-4.516437 -2.13372,-5.714896 z m -5.76606,1.371492 -3.75894,1.346171 c 0.6858,1.2192 1.90501,4.648188 2.33681,6.019788 l 3.8101,-1.447974 c -0.508,-1.4732 -1.67677,-4.495585 -2.38797,-5.917985 z m -69.39576,2.269112 -0.88935,4.034379 c 1.87587,0.485988 3.57911,0.980752 4.70255,1.39268 l 1.54926,-3.937227 c -1.36288,-0.454295 -3.29662,-0.982292 -5.36246,-1.489832 z m 28.02774,2.995683 -3.23132,3.75946 c 0.17029,-0.170172 0.33888,-0.341768 0.50539,-0.515214 0.2286,0.2286 0.45723,0.431825 0.66043,0.660425 l 0.20309,0.177767 c 0.8128,0.8636 1.6002,1.726861 2.3368,2.615861 l 0.17777,0.177767 c 0.1524,0.2032 0.30486,0.406582 0.48266,0.609782 l 0.15244,0.177767 c 0.6858,0.8636 1.3206,1.701697 1.9048,2.539897 l 3.58117,-3.149162 c -0.9398,-1.143 -2.5398,-2.946417 -4.2416,-4.673617 l -0.17776,-0.203605 c -0.78459,-0.759277 -1.59423,-1.518366 -2.35387,-2.177128 z m 20.23546,2.939356 v 3.454569 c 0,1.2192 -0.10149,3.047822 -0.20309,3.733622 h 4.97851 c -0.2032,-0.6858 -0.2036,-2.387815 -0.2036,-3.607015 V 73.67509 Z m -48.81614,1.425236 -0.90692,4.114477 c 2.48291,0.608051 4.75989,1.248712 6.23838,1.826245 l 1.72702,-3.937227 c -1.66869,-0.584044 -4.27923,-1.322125 -7.05848,-2.003495 z"
       inkscape:label="blue" />
    <path
       d="m 32.144481,66.207454 c -0.370505,-1.276184 -1.843146,-5.108786 -2.7432,-6.9596 l -3.9116,1.2954 c 0.8128,1.7018 2.2098,5.3594 2.7178,7.0612 z m 3.937,7.2644 c 2.0828,-2.7686 3.429,-7.0104 4.1148,-9.5504 0.1778,-0.6604 0.4572,-1.6256 0.787399,-2.3876 l -4.648199,-1.3462 c -0.4064,3.9116 -1.9812,8.4582 -3.8354,10.795 -2.6162,3.2766 -6.477,5.5118 -9.8552,6.4516 l 3.4798,3.6322 c 3.6322,-1.4224 7.2644,-4.0386 9.9568,-7.5946 z m -10.6172,-5.334 c -0.505817,-1.563435 -2.180856,-5.655183 -2.9718,-7.2898 l -4.0132,1.397 c 0.7874,1.4986 2.413,5.6896 2.9718,7.366 z m 34.874199,6.096 c 2.3368,-2.8702 3.556,-6.223 4.2418,-8.3312 0.254,-0.762 0.7112,-1.6256 1.0414,-2.1844 l -3.0988,-2.0066 c -0.6604,0.2032 -1.7018,0.381 -2.54,0.381 h -3.8862 c 0.381,-0.5842 0.9652,-1.6764 1.5494,-2.4892 l -4.572,-1.524 c -0.2794,0.9906 -0.9652,2.4384 -1.4224,3.1496 -1.3462,2.1336 -3.2258,5.1308 -7.7216,7.8994 l 3.5052,2.6924 c 2.767122,-1.9286 4.967584,-4.397265 6.3246,-6.1214 h 6.1468 c -0.3302,1.651 -1.778,4.4196 -3.3782,6.1976 -2.159,2.413 -4.6482,4.6228 -10.1346,6.2992 l 3.7084,3.4036 c 4.7752,-1.9558 7.7724,-4.3434 10.2362,-7.366 z m 29.3624,4.318 v -15.7988 c 0,-0.7366 0,-1.7018 0.0254,-2.0828 -0.5334,0.0508 -1.778,0.0762 -2.54,0.0762 h -11.176 c -1.3462,0 -3.2766,-0.0762 -4.2418,-0.1524 v 4.191 c 0.889,-0.0508 2.8956,-0.1016 4.2418,-0.1016 h 9.398 v 3.2258 h -9.017 c -1.2446,0 -2.7686,-0.0508 -3.7338,-0.127 v 4.0894 c 0.4572,0 1.27,-0.0254 2.1082,-0.0254 h 10.6426 v 3.556 h -11.2268 c -1.1684,0 -2.2098,-0.0508 -2.7432,-0.1016 v 4.2672 c 0.5588,-0.0508 1.8542,-0.1016 2.7178,-0.1016 h 11.2522 c -0.0254,0.4826 -0.0254,0.9906 -0.0254,1.2954 h 4.3434 c 0,-0.5334 -0.0254,-1.6764 -0.0254,-2.2098 z m 24.8666,-16.3068 c -1.4478,-0.508 -3.81,-1.1176 -6.2738,-1.6764 l -0.2794,-0.0762 c -0.127,-0.0254 -0.2794,-0.0508 -0.4064,-0.0762 l -0.3048,-0.0762 c -0.508,-0.1016 -1.0414,-0.2286 -1.5494,-0.3302 l -0.2794,-0.0508 c -1.9304,-0.381 -3.7338,-0.7112 -4.9784,-0.8382 l -1.4224,3.7846 c 1.524,0.2032 3.683,0.6096 5.8928,1.0922 l 0.2794,0.0762 c 0.1778,0.0508 0.381,0.0762 0.5588,0.127 l 0.2794,0.0762 c 0.0508,0 0.1016,0 0.1524,0.0254 l 0.2794,0.0762 c 2.5908,0.6096 5.0546,1.27 6.4516,1.8034 z m -1.7272,6.985 c -1.6002,-0.5334 -3.9878,-1.1684 -6.4516,-1.7526 l -0.2794,-0.0508 c -0.1016,-0.0254 -0.1778,-0.0508 -0.2794,-0.0762 l -0.2794,-0.0508 -0.2794,-0.0508 c -2.1336,-0.4826 -4.2672,-0.9144 -5.8674,-1.1938 l -1.4478,3.8354 c 1.6002,0.2794 3.683,0.6858 5.7404,1.1684 l 0.2794,0.0762 c 0.0762,0 0.1778,0.0254 0.2794,0.0508 l 0.2794,0.0762 c 2.6416,0.635 5.2324,1.3462 6.7564,1.905 z m 1.143,7.874 c -2.032,-0.7112 -5.461,-1.651 -8.89,-2.4384 l -0.4064,-0.1016 -0.2794,-0.0508 c -0.0508,-0.0254 -0.0762,-0.0254 -0.127,-0.0508 l -0.2794,-0.0508 c -0.127,-0.0254 -0.2794,-0.0508 -0.4064,-0.1016 l -0.2794,-0.0508 c -1.905,-0.4064 -3.7084,-0.762 -5.1562,-0.9652 l -1.5748,3.9624 c 1.7018,0.254 4.1148,0.7366 6.5786,1.27 l 0.2794,0.0762 c 0.2032,0.0508 0.381,0.0762 0.5842,0.127 l 0.2794,0.0508 0.2794,0.0762 0.2794,0.0762 c 0.0508,0 0.0762,0.0254 0.127,0.0254 l 0.2794,0.0762 c 2.7686,0.6604 5.3594,1.3716 6.985,2.0066 z m 28.2956,0.6858 c -0.9398,-1.143 -2.54,-2.9464 -4.2418,-4.6736 l -0.1778,-0.2032 c -0.7874,-0.762 -1.6002,-1.524 -2.3622,-2.1844 1.651,-2.286 2.8448,-4.7752 3.683,-6.6548 0.2794,-0.635 0.8636,-1.6256 1.0922,-1.9558 l -2.6162,-1.9304 c -0.5842,0.2032 -1.6764,0.381 -2.9464,0.381 h -8.3058 c -0.7366,0 -2.4384,-0.0762 -3.302,-0.2032 v 4.5466 c 0.7112,-0.0508 2.159,-0.2286 3.302,-0.2286 h 7.62 c -0.5334,1.5748 -1.7526,3.7084 -3.4036,5.588 -2.2606,2.5146 -6.1722,5.715 -10.287,7.2136 l 3.2766,3.429 c 2.4892,-1.2192 4.9022,-2.9464 7.0866,-4.9022 l 0.1778,-0.1778 c 0.6604,-0.6096 1.2954,-1.2192 1.905,-1.8542 0.2286,0.2286 0.4572,0.4318 0.6604,0.6604 l 0.2032,0.1778 c 0.8128,0.8636 1.6002,1.7272 2.3368,2.6162 l 0.1778,0.1778 c 0.1524,0.2032 0.3048,0.4064 0.4826,0.6096 l 0.1524,0.1778 c 0.6858,0.8636 1.3208,1.7018 1.905,2.54 z m 18.034,-10.6172 c 3.33398,-2.222652 6.40918,-5.291582 6.604,-5.4864 l -3.3782,-3.2512 c -1.6002,1.9304 -4.699,4.699 -7.2644,6.2738 -2.8448,1.7272 -6.223,3.302 -10.8458,4.4704 l 1.9558,4.0132 c 0.5334,-0.1524 1.0668,-0.3302 1.6002,-0.508 l 0.2286,-0.0762 c 0.6604,-0.2286 1.2954,-0.4572 1.9304,-0.7112 l 0.254,-0.1016 c 1.524,-0.635 3.0226,-1.3208 4.3434,-2.032 v 7.366 c 0,1.2192 -0.1016,3.048 -0.2032,3.7338 h 4.9784 c -0.2032,-0.6858 -0.2032,-2.3876 -0.2032,-3.6068 z m 24.4602,2.6416 c -0.37523,-1.232891 -1.58545,-4.516541 -2.1336,-5.715 l -3.7084,1.2192 c 0.6858,1.4224 1.7526,4.4958 2.1082,5.7658 z m 3.2004,5.8928 c 1.6764,-2.1844 2.6162,-4.7498 3.2766,-7.1882 0.1778,-0.6096 0.3556,-1.3208 0.7112,-2.3114 l -4.3688,-1.4478 c -0.2286,3.1496 -1.4224,6.6294 -3.0988,8.7376 -2.1082,2.667 -5.6642,4.6228 -8.3566,5.3086 l 3.2766,3.4544 c 3.048,-1.1684 6.1976,-3.4544 8.5598,-6.5532 z m -8.7122,-4.318 c -0.508,-1.4732 -1.6764,-4.4958 -2.3876,-5.9182 l -3.7592,1.3462 c 0.6858,1.2192 1.905,4.6482 2.3368,6.0198 z m 30.607,-0.4572 h 6.1468 c 0.7366,0 1.7272,0.0762 2.4892,0.127 v -4.1402 c -0.5842,0.0508 -2.032,0.1524 -2.5654,0.1524 h -5.9182 v -3.3528 c 1.0414,-0.1524 1.9812,-0.3556 2.921,-0.5842 1.61059,-0.381888 -0.44757,0.09615 3.175,-0.7874 l -2.5654,-3.4798 c -1.2954,0.635 -3.556,1.143 -6.2484,1.5494 -2.5146,0.4064 -5.9182,0.4572 -8.001,0.4572 h -0.4826 -0.1778 l 0.9652,3.683 c 1.143,-0.0254 2.7686,-0.1016 4.4704,-0.2032 0.65164,-0.03343 1.30709,-0.06022 1.9558,-0.127 v 2.8448 h -6.731 c -0.8128,0 -1.7526,-0.0762 -2.5146,-0.1524 v 4.1402 c 0.6858,-0.0508 1.778,-0.127 2.54,-0.127 h 6.4008 c -0.6096,3.302 -2.4638,5.9182 -6.223,7.62 l 3.9878,2.7686 c 4.191,-2.5654 5.8928,-6.3246 6.3754,-10.3886 z"
       id="text1"
       style="font-weight:900;font-size:96px;font-family:'Glow Sans TC';-inkscape-font-specification:'Glow Sans TC Heavy';white-space:pre;display:inline;fill:url(#pattern3);fill-opacity:1;stroke:#000000;stroke-width:0.79375;stroke-linecap:round;stroke-linejoin:round;stroke-opacity:0"
       aria-label="ツクヨミスイッチ"
       sodipodi:nodetypes="ccccccccccccccccccccccsccccccccccccsscssccsccsccsccsccscccsccccccccccccccccccccccccccccccccccccccccccccccccccccccccccssccscccccccccccccccccccccscsccsccsccccccccccccccccccccsccsccccccsccccccsccscccc"
       inkscape:label="stripe" />
    <path
       id="path14"
       style="display:inline;fill:#000000;fill-opacity:1;stroke-width:0.79375;stroke-linecap:round;stroke-linejoin:round;stroke-opacity:0"
       inkscape:label="black"
       d="m 212.05114,60.366858 c -0.54527,0.267289 -1.26139,0.512149 -2.10892,0.736389 v 3.866947 c 0.0262,-0.0053 0.0524,-0.01069 0.0786,-0.01602 v -1.2361 c 1.0414,-0.1524 1.98095,-0.355344 2.92075,-0.583944 0.9798,-0.232319 0.60177,-0.146341 0.971,-0.242363 z M 27.901139,60.74823 25.884725,61.415889 c 0.812257,1.870281 1.890127,4.73913 2.322856,6.18877 l 2.15439,-0.764811 C 29.781799,65.165492 28.645625,62.279143 27.901139,60.74823 Z m 60.325,1.422135 c -0.5334,0.0508 -1.777896,0.07648 -2.539896,0.07648 h -3.33158 v 2.436543 h 3.05356 v 3.225643 H 83.908057 V 69.4092 h -1.553394 v 2.437061 h 3.05356 v 3.555855 h -1.500166 v 1.500167 h -1.553394 v 2.564184 h 3.05356 c -0.0254,0.4826 -0.02532,0.990212 -0.02532,1.295012 h 2.825151 c -0.0039,-0.275197 -0.0072,-0.527686 -0.0072,-0.709518 V 64.253442 c 0,-0.7366 -7.8e-5,-1.702077 0.02532,-2.083077 z m 19.257221,0.05633 -0.49868,2.263427 c 1.98982,0.475878 3.86985,0.975557 5.20434,1.416968 l 0.8785,-2.161625 c -1.31205,-0.460366 -3.37509,-1.004871 -5.58416,-1.51877 z m -86.490843,0.121439 -2.109432,0.734322 c 0.846522,1.860552 2.092702,5.103501 2.567802,6.528801 L 23.67039,68.79632 c -0.687148,-1.876326 -2.003669,-5.054832 -2.677873,-6.448186 z m 39.427568,1.01906 c -0.60201,0.130667 -1.324082,0.225826 -1.93735,0.225826 h -3.360001 l -1.39113,2.142504 c 0.0096,-0.0121 0.01895,-0.02414 0.02842,-0.03617 h 5.442045 z m 120.719245,2.232421 -1.81953,0.597897 c 0.6482,1.562891 1.42586,3.838587 1.71928,4.886523 l 1.942,-0.660425 c -0.51694,-1.5087 -1.39718,-3.851996 -1.84175,-4.823995 z m -3.65817,1.202511 -0.0501,0.01654 c 0.52287,1.084481 1.26706,3.128401 1.74873,4.60127 l 0.0817,-0.03101 c -0.37987,-1.101607 -1.12904,-3.069445 -1.78025,-4.5868 z m -2.10789,0.168982 -1.85725,0.665076 c 0.68651,1.535985 1.57896,4.068854 1.93529,5.200716 l 2.01796,-0.766878 c -0.5804,-1.586051 -1.49931,-3.905534 -2.096,-5.098914 z m 41.63106,1.447457 c -0.5842,0.0508 -2.03234,0.152445 -2.56574,0.152445 h -4.49637 v 2.361096 h 6.07302 c 0.2987,0 0.63902,0.01228 0.98909,0.03049 z m -109.91836,1.099158 -0.49764,2.256709 c 1.47252,0.381493 2.83874,0.768217 3.90157,1.116211 l 0.85007,-2.160591 c -1.11574,-0.371918 -2.61379,-0.793283 -4.254,-1.212329 z m 27.04021,2.823083 -1.85208,2.15439 c 0.17029,-0.170172 0.33888,-0.341768 0.50539,-0.515214 0.2286,0.2286 0.45723,0.431825 0.66043,0.660425 l 0.20309,0.177767 c 0.8128,0.8636 1.6002,1.726861 2.3368,2.615861 l 0.17777,0.177767 c 0.1524,0.2032 0.30486,0.406582 0.48266,0.609782 l 0.15244,0.177767 c 0.6858,0.8636 1.3206,1.701697 1.9048,2.539897 l 1.99471,-1.753899 c -0.94956,-1.146506 -2.50466,-2.893437 -4.1553,-4.568713 l -0.17777,-0.203605 c -0.74324,-0.719264 -1.50854,-1.438425 -2.23294,-2.072225 z m 21.6147,2.834452 v 1.954403 c 0,1.2192 -0.10149,3.047822 -0.20309,3.733622 h 3.30471 c -0.0297,-0.690441 -0.03,-1.465387 -0.03,-2.106848 v -3.581177 z m -49.20785,1.702222 -0.51521,2.337325 c 2.10664,0.515906 4.06513,1.055214 5.51336,1.559595 l 0.95188,-2.17041 c -1.44468,-0.505639 -3.59516,-1.126717 -5.95003,-1.72651 z" />
  </g>
</svg>
