<?xml version="1.0" encoding="UTF-8" standalone="no"?>
<!-- Created with Inkscape (http://www.inkscape.org/) -->

<svg
   version="1.1"
   id="svg1"
   width="682.66669"
   height="682.66669"
   viewBox="0 0 682.66669 682.66669"
   sodipodi:docname="logo.svg"
   xml:space="preserve"
   inkscape:version="1.4.2 (f4327f4, 2025-05-13)"
   xmlns:inkscape="http://www.inkscape.org/namespaces/inkscape"
   xmlns:sodipodi="http://sodipodi.sourceforge.net/DTD/sodipodi-0.dtd"
   xmlns="http://www.w3.org/2000/svg"
   xmlns:svg="http://www.w3.org/2000/svg"><defs
     id="defs1" /><sodipodi:namedview
     id="namedview1"
     pagecolor="#ffffff"
     bordercolor="#000000"
     borderopacity="0.25"
     inkscape:showpageshadow="2"
     inkscape:pageopacity="0.0"
     inkscape:pagecheckerboard="0"
     inkscape:deskcolor="#d1d1d1"
     inkscape:zoom="1.0766601"
     inkscape:cx="340.86895"
     inkscape:cy="267.02949"
     inkscape:window-width="1920"
     inkscape:window-height="974"
     inkscape:window-x="-11"
     inkscape:window-y="-11"
     inkscape:window-maximized="1"
     inkscape:current-layer="g1" /><g
     inkscape:groupmode="layer"
     inkscape:label="Image"
     id="g1"
     transform="translate(0,29.52213)"><path
       style="fill:#059de4;fill-opacity:1"
       d="m 245.72109,440.29253 c -1.91533,-1.91533 -8.65299,-13.36379 -13.11963,-22.29252 -5.21477,-10.42423 -8.54203,-19.12192 -11.46238,-29.96343 -1.91666,-7.1154 -2.07745,-8.54264 -2.10704,-18.70324 -0.0286,-9.81507 0.12871,-11.42601 1.46019,-14.95477 5.96015,-15.79589 21.74151,-28.51973 45.48618,-36.67357 l 4.31174,-1.48064 -5.64507,-1.46586 c -30.71366,-7.97548 -52.82312,-19.49663 -63.18227,-32.924 -11.24542,-14.57616 -18.3933,-44.51629 -18.3434,-76.83449 0.0176,-11.4188 1.54423,-30.47907 2.67776,-33.433 0.96482,-2.5143 24.02964,0.68224 39.28475,5.44446 14.55654,4.54414 26.79954,10.36679 39.68991,18.87615 27.96628,18.46144 48.44254,42.43226 67.53682,79.0629 5.00231,9.59647 5.19918,10.14797 5.53308,15.5 0.1911,3.06299 0.0801,5.54719 -0.24775,5.54435 -0.32668,-0.003 -1.31304,-1.27782 -2.19191,-2.83333 -2.86158,-5.06471 -9.79223,-15.32229 -15.91907,-23.56073 -21.63787,-29.09533 -44.84249,-49.52666 -71.03861,-62.54846 -13.27288,-6.5978 -30.04014,-12.14386 -40.51161,-13.39991 l -3.73389,-0.44788 -0.43278,3.15744 c -0.73237,5.34325 -0.45603,19.49817 0.5721,29.30467 1.62467,15.49646 4.73006,27.80064 9.50649,37.66667 6.61103,13.65553 25.71897,25.92647 55.82197,35.84833 15.26353,5.03082 37.63116,11.41467 51.16287,14.60218 2.83957,0.66889 5.16457,1.43544 5.16666,1.70346 0.002,0.26801 -0.82119,0.66801 -1.82952,0.88887 -4.90273,1.0739 -20.53725,5.56564 -30.5,8.76254 -27.9733,8.97624 -46.62047,20.49246 -52.64859,32.51502 -1.69171,3.37396 -2.01954,4.88934 -2.23882,10.34875 -0.32382,8.06217 0.59448,14.00377 3.57433,23.12663 2.58581,7.91651 11.98438,27.45327 13.48375,28.02864 0.51907,0.19918 2.61825,-0.0126 4.66485,-0.47059 27.08611,-6.06161 46.52993,-24.82248 63.80229,-61.56132 3.73291,-7.94002 12.36219,-29.15162 12.36219,-30.38747 0,-0.4061 0.3,-0.73837 0.66666,-0.73837 0.36667,0 0.6636,0.675 0.65984,1.5 -0.0118,2.60057 -3.26992,22.58267 -4.6599,28.57957 -3.42899,14.79395 -10.72648,33.49792 -17.11034,43.85501 -13.57453,22.02311 -33.76964,35.4238 -59.8896,39.74042 -3.3,0.54537 -6.81339,1.13177 -7.80754,1.30313 -1.08311,0.18669 -2.20718,-0.0881 -2.80471,-0.68561 z m 180.61226,-0.64114 c -14.01556,-2.75583 -20.73672,-5.0855 -30.05562,-10.41779 -19.61158,-11.22178 -32.47045,-28.44901 -42.47186,-56.90026 -5.08856,-14.47554 -11.24397,-48.37951 -8.47253,-46.66666 0.36667,0.22661 0.66667,0.84432 0.66667,1.3727 0,1.48918 8.78244,23.11411 12.68053,31.22315 6.79987,14.14552 12.99859,24.23332 20.21699,32.90115 8.57305,10.2945 18.0451,17.96726 27.40374,22.19819 4.56605,2.06426 17.22021,5.97364 19.31523,5.96726 1.59643,-0.005 2.31392,-1.11778 7.85738,-12.18771 7.81286,-15.60176 10.84309,-26.66424 10.42175,-38.04667 -0.32934,-8.89689 -2.10451,-12.73455 -9.17575,-19.83668 -8.38446,-8.42108 -19.35946,-14.74162 -36.18639,-20.83985 -9.6719,-3.50519 -25.95275,-8.28044 -35.81304,-10.50412 -3.69624,-0.83358 -6.72044,-1.73504 -6.72044,-2.00325 0,-0.56691 0.36388,-0.67968 8.33333,-2.58264 3.3,-0.78798 7.5,-1.86478 9.33334,-2.39288 1.83333,-0.52811 9.18333,-2.62 16.33333,-4.64866 22.44944,-6.36955 35.8292,-11.17136 48.10826,-17.26539 15.55794,-7.72131 26.14729,-16.46835 30.35717,-25.07571 7.51456,-15.36399 12.08187,-43.91332 10.42684,-65.17609 l -0.43307,-5.56385 -3.7296,0.43216 c -10.13553,1.17443 -27.11452,6.78043 -40.39626,13.33773 -25.86359,12.76907 -48.87231,32.93029 -70.78461,62.02449 -4.48177,5.95069 -13.70763,19.63794 -16.51418,24.5 -1.00535,1.74167 -1.99433,3.16667 -2.19773,3.16667 -0.20339,0 -0.17465,-2.7494 0.0639,-6.10977 0.41284,-5.81609 0.63823,-6.51305 4.68914,-14.5 20.27345,-39.97207 45.02057,-67.30964 78.09188,-86.2663 18.15718,-10.4078 41.85179,-17.67644 61.51557,-18.87074 l 7.27746,-0.442 0.43188,1.72073 c 1.21148,4.82692 2.49713,21.54481 2.49687,32.46807 -8.8e-4,38.69659 -9.0459,69.96444 -24.2078,83.68431 -12.43059,11.24833 -31.08712,19.67265 -59.82177,27.01239 l -2.95942,0.75593 6.7724,2.55545 c 20.56993,7.7617 34.57002,18.34076 40.66123,30.72534 3.51504,7.14674 4.44062,12.47537 3.97737,22.89798 -0.4506,10.13786 -2.48272,18.6725 -7.59666,31.90494 -5.53783,14.32927 -18.55606,37.24078 -21.06635,37.07587 -0.45604,-0.03 -4.42915,-0.76233 -8.82915,-1.62749 z m -86.89879,-45.09586 c -3.06491,-7.1848 -4.13581,-13.20376 -4.15207,-23.33653 -0.0141,-8.76301 0.81667,-15.02608 3.16816,-23.88566 1.65274,-6.22696 2.45521,-7.98304 3.27386,-7.16439 0.79601,0.79602 3.61196,11.55575 4.66659,17.83106 1.33589,7.94891 1.34904,19.47611 0.0297,26 -1.18569,5.8628 -3.78338,12.78755 -4.94187,13.17371 -0.45463,0.15155 -1.35434,-1.00071 -2.04432,-2.61819 z"
       id="path2" /><path
       style="fill:#aaaaaa;fill-opacity:1"
       d="m 245.72109,440.29253 c -3.78693,-3.78693 -15.97235,-26.81469 -20.05779,-37.9048 -2.91716,-7.91875 -6.3198,-20.56099 -6.32571,-23.50268 -0.004,-1.8038 0.31453,-2.21494 2.16242,-2.79448 2.63949,-0.8278 14.7967,-3.42389 16.03368,-3.42389 0.6108,0 1.12281,1.72658 1.63099,5.5 0.40739,3.025 1.82102,8.8 3.14139,12.83333 2.62822,8.02836 12.02338,27.57911 13.53128,28.15775 0.51907,0.19918 2.61825,-0.0126 4.66485,-0.47059 27.08611,-6.06161 46.52993,-24.82248 63.80229,-61.56132 3.73291,-7.94002 12.36219,-29.15162 12.36219,-30.38747 0,-0.4061 0.3,-0.73837 0.66666,-0.73837 0.36667,0 0.6636,0.675 0.65984,1.5 -0.0118,2.60057 -3.26992,22.58267 -4.6599,28.57957 -3.42899,14.79395 -10.72648,33.49792 -17.11034,43.85501 -13.57453,22.02311 -33.76964,35.4238 -59.8896,39.74042 -3.3,0.54537 -6.81339,1.13177 -7.80754,1.30313 -1.08311,0.18669 -2.20718,-0.0881 -2.80471,-0.68561 z m 180.61226,-0.64114 c -14.01556,-2.75583 -20.73672,-5.0855 -30.05562,-10.41779 -19.61158,-11.22178 -32.47045,-28.44901 -42.47186,-56.90026 -5.08856,-14.47554 -11.24397,-48.37951 -8.47253,-46.66666 0.36667,0.22661 0.66667,0.84432 0.66667,1.3727 0,0.52837 2.06761,6.13566 4.59469,12.46065 11.88746,29.75299 23.38107,48.54355 37.72672,61.6783 8.72281,7.98653 16.72012,12.42695 28.96174,16.08071 8.7303,2.60573 9.40313,2.59981 10.98742,-0.0966 7.26158,-12.35893 13.97366,-29.45322 15.2553,-38.85212 0.89415,-6.55725 0.28226,-6.27551 9.31452,-4.28884 9.94271,2.18692 10.49295,2.43613 10.49295,4.75247 0,3.82562 -3.24712,15.44799 -7.1045,25.42904 -5.53783,14.32927 -18.55606,37.24078 -21.06635,37.07587 -0.45604,-0.03 -4.42915,-0.76233 -8.82915,-1.62749 z m -86.89879,-45.09586 c -3.06491,-7.1848 -4.13581,-13.20376 -4.15207,-23.33653 -0.0141,-8.76301 0.81667,-15.02608 3.16816,-23.88566 1.65274,-6.22696 2.45521,-7.98304 3.27386,-7.16439 0.79601,0.79602 3.61196,11.55575 4.66659,17.83106 1.33589,7.94891 1.34904,19.47611 0.0297,26 -1.18569,5.8628 -3.78338,12.78755 -4.94187,13.17371 -0.45463,0.15155 -1.35434,-1.00071 -2.04432,-2.61819 z"
       id="path3" /><path
       style="fill:#ff7f7e;fill-opacity:1"
       d="m 267.0684,403.83335 c -5.93396,-8.94371 -11.3456,-21.21248 -14.04138,-31.83334 -2.22639,-8.77158 -2.76722,-15.28804 -1.47326,-17.75149 1.86379,-3.54829 9.84729,-10.35894 16.97361,-14.48002 11.64926,-6.73665 34.91753,-15.08293 53.16743,-19.07104 3.1012,-0.6777 5.63854,-1.01309 5.63854,-0.74532 0,0.26778 -5.475,3.73966 -12.16666,7.71529 -22.86864,13.58666 -32.01311,19.91498 -40.33334,27.91221 -5.54587,5.33058 -5.64228,5.71081 -3.53606,13.94604 1.27817,4.99759 5.54734,15.141 6.37257,15.141 0.7628,0 6.23181,-3.98225 10.15322,-7.39305 11.08014,-9.63737 27.87963,-31.93154 38.70508,-51.36452 3.72299,-6.68322 3.94118,-6.92864 6.67388,-7.50668 1.55378,-0.32866 2.96831,-0.45431 3.14341,-0.27921 0.96834,0.96833 -9.20724,25.6223 -16.76775,40.62588 -10.05048,19.94483 -20.37357,33.09135 -33.13518,42.19785 -4.27227,3.04862 -13.50662,7.71973 -15.26121,7.71973 -0.49835,0 -2.34915,-2.175 -4.1129,-4.83333 z m 139.56451,2.93253 c -7.39176,-3.15274 -13.92874,-7.86169 -21.37901,-15.4005 -8.7442,-8.84812 -15.59588,-18.97156 -23.09182,-34.11843 -5.45817,-11.02921 -16.15742,-36.6416 -16.16044,-38.68565 -0.002,-1.01682 0.25277,-1.02402 3.17381,-0.0899 2.93077,0.93722 3.37426,1.38198 5.75555,5.77204 3.95675,7.29452 14.95573,24.11116 21.50573,32.88071 9.44117,12.64041 26.99292,29.1856 28.81504,27.16254 2.18283,-2.42357 7.41491,-18.65982 7.41491,-23.01006 0,-1.79502 -10.79404,-11.48829 -19.33333,-17.36174 -4.41522,-3.03685 -24.70323,-15.59832 -32.8067,-20.3125 -4.90853,-2.85554 -5.69665,-3.94658 -2.35997,-3.26708 16.95479,3.45277 37.14272,9.9479 48.61599,15.64139 9.17642,4.5537 18.82498,11.50235 22.66042,16.31946 l 2.66156,3.34278 -0.42825,4.68054 c -0.88669,9.69125 -4.34587,21.03883 -9.75905,32.01388 -3.37659,6.84592 -9.06481,15.7868 -10.25067,16.11224 -0.36667,0.10062 -2.63186,-0.65524 -5.03377,-1.67971 z M 330.03612,305.00001 c -11.80633,-14.69318 -18.52179,-22.23665 -29.99427,-33.69257 -12.10862,-12.09115 -21.31855,-19.79308 -32.04184,-26.79543 -7.36081,-4.80664 -23.8671,-13.5338 -24.46554,-12.93535 -1.27635,1.27634 3.09838,22.69567 6.37256,31.20104 1.88447,4.89529 21.55018,17.76792 49.42631,32.3531 7.8034,4.08285 12.96585,6.87187 26.4945,14.31368 2.79276,1.53624 3.60283,2.55553 2.03097,2.55553 -1.2259,0 -27.65828,-7.06901 -37.8588,-10.12486 -18.33972,-5.49417 -32.99135,-11.61537 -44.33334,-18.52171 -7.96903,-4.85248 -10.31792,-7.12992 -12.70212,-12.31579 -2.54787,-5.54184 -5.84384,-16.93424 -7.34016,-25.37098 -1.24477,-7.01845 -2.00801,-30.925 -1.15996,-36.33333 l 0.57494,-3.66667 2.31365,0.20421 c 3.93078,0.34693 14.625,4.0492 22.31365,7.72483 15.53961,7.42884 29.80279,17.8708 44.70332,32.72692 13.58541,13.54492 24.28449,27.0361 37.90674,47.79913 l 5.10983,7.78842 -0.19327,5.87825 -0.19328,5.87825 z m 15.17571,7.96549 c -0.7352,-1.27838 -0.59046,-9.63556 0.19244,-11.11143 0.44368,-0.8364 2.78994,-4.52073 5.21391,-8.18739 22.75407,-34.41944 40.79272,-53.97118 64.38183,-69.78217 12.53142,-8.39939 31.05414,-16.81136 40.25875,-18.28324 l 2.53692,-0.40567 0.4355,4.16667 c 1.11247,10.64352 0.0826,29.31676 -2.2385,40.58947 -1.81788,8.8286 -5.71524,20.68311 -7.9675,24.23454 -2.2146,3.49208 -10.88169,9.55873 -20.6637,14.46387 -6.52416,3.2715 -19.46386,8.32968 -30.6948,11.99873 -5.71779,1.86794 -42.11099,12.0178 -43.09089,12.0178 -2.29899,0 7.80466,-5.86583 36.75755,-21.34016 16.37462,-8.75167 29.77705,-17.06386 37.29451,-23.13005 4.54383,-3.66663 5.99922,-6.64776 8.7208,-17.86313 1.49698,-6.16888 3.25218,-18.28807 2.72498,-18.81527 -0.12573,-0.12573 -4.09373,1.71301 -8.81778,4.0861 -17.44609,8.76391 -30.89822,18.8679 -47.92251,35.99493 -9.669,9.72736 -15.26214,16.0928 -34.29728,39.03306 -1.35337,1.63102 -2.62427,2.68102 -2.82423,2.33334 z"
       id="path1" /></g></svg>
