<?xml version="1.0" encoding="UTF-8" standalone="no"?>
<!-- Created with Inkscape (http://www.inkscape.org/) -->

<svg
   width="240mm"
   height="160mm"
   viewBox="0 0 240 160"
   version="1.1"
   id="svg1"
   inkscape:version="1.4.2 (f4327f4, 2025-05-13)"
   sodipodi:docname="描画.svg"
   xmlns:inkscape="http://www.inkscape.org/namespaces/inkscape"
   xmlns:sodipodi="http://sodipodi.sourceforge.net/DTD/sodipodi-0.dtd"
   xmlns:xlink="http://www.w3.org/1999/xlink"
   xmlns="http://www.w3.org/2000/svg"
   xmlns:svg="http://www.w3.org/2000/svg">
  <sodipodi:namedview
     id="namedview1"
     pagecolor="#ffffff"
     bordercolor="#000000"
     borderopacity="0.25"
     inkscape:showpageshadow="2"
     inkscape:pageopacity="0.0"
     inkscape:pagecheckerboard="0"
     inkscape:deskcolor="#d1d1d1"
     inkscape:document-units="mm"
     inkscape:zoom="0.34075127"
     inkscape:cx="159.94071"
     inkscape:cy="683.78323"
     inkscape:window-width="1920"
     inkscape:window-height="974"
     inkscape:window-x="-11"
     inkscape:window-y="-11"
     inkscape:window-maximized="1"
     inkscape:current-layer="g12" />
  <defs
     id="defs1">
    <pattern
       inkscape:collect="always"
       xlink:href="#Strips1_1"
       preserveAspectRatio="xMidYMid"
       id="pattern3"
       patternTransform="matrix(0.42426407,0.42426407,-0.42426407,0.42426407,0,0)"
       x="0"
       y="-2" />
    <pattern
       inkscape:collect="always"
       patternUnits="userSpaceOnUse"
       width="2"
       height="10"
       patternTransform="translate(0,0) scale(2,2)"
       preserveAspectRatio="xMidYMid"
       id="Strips1_1"
       style="fill:#000000"
       inkscape:stockid="Stripes 01 (1:1)"
       inkscape:isstock="true"
       inkscape:label="ストライプ 01 (1:1)">
      <rect
   style="stroke:none"
   x="0"
   y="-0.5"
   width="1"
   height="11"
   id="rect134" />

    </pattern>
    <rect
       x="632.42612"
       y="365.36915"
       width="2.934692"
       height="143.79991"
       id="rect2" />
    <rect
       x="230.37332"
       y="428.46503"
       width="782.09543"
       height="362.43447"
       id="rect1" />
  </defs>
  <path
     d="m 32.144481,66.207454 c -0.370505,-1.276184 -1.843146,-5.108786 -2.7432,-6.9596 l -3.9116,1.2954 c 0.8128,1.7018 2.2098,5.3594 2.7178,7.0612 z m 3.937,7.2644 c 2.0828,-2.7686 3.429,-7.0104 4.1148,-9.5504 0.1778,-0.6604 0.4572,-1.6256 0.787399,-2.3876 l -4.648199,-1.3462 c -0.4064,3.9116 -1.9812,8.4582 -3.8354,10.795 -2.6162,3.2766 -6.477,5.5118 -9.8552,6.4516 l 3.4798,3.6322 c 3.6322,-1.4224 7.2644,-4.0386 9.9568,-7.5946 z m -10.6172,-5.334 c -0.505817,-1.563435 -2.180856,-5.655183 -2.9718,-7.2898 l -4.0132,1.397 c 0.7874,1.4986 2.413,5.6896 2.9718,7.366 z m 34.874199,6.096 c 2.3368,-2.8702 3.556,-6.223 4.2418,-8.3312 0.254,-0.762 0.7112,-1.6256 1.0414,-2.1844 l -3.0988,-2.0066 c -0.6604,0.2032 -1.7018,0.381 -2.54,0.381 h -3.8862 c 0.381,-0.5842 0.9652,-1.6764 1.5494,-2.4892 l -4.572,-1.524 c -0.2794,0.9906 -0.9652,2.4384 -1.4224,3.1496 -1.3462,2.1336 -3.2258,5.1308 -7.7216,7.8994 l 3.5052,2.6924 c 2.767122,-1.9286 4.967584,-4.397265 6.3246,-6.1214 h 6.1468 c -0.3302,1.651 -1.778,4.4196 -3.3782,6.1976 -2.159,2.413 -4.6482,4.6228 -10.1346,6.2992 l 3.7084,3.4036 c 4.7752,-1.9558 7.7724,-4.3434 10.2362,-7.366 z m 29.3624,4.318 v -15.7988 c 0,-0.7366 0,-1.7018 0.0254,-2.0828 -0.5334,0.0508 -1.778,0.0762 -2.54,0.0762 h -11.176 c -1.3462,0 -3.2766,-0.0762 -4.2418,-0.1524 v 4.191 c 0.889,-0.0508 2.8956,-0.1016 4.2418,-0.1016 h 9.398 v 3.2258 h -9.017 c -1.2446,0 -2.7686,-0.0508 -3.7338,-0.127 v 4.0894 c 0.4572,0 1.27,-0.0254 2.1082,-0.0254 h 10.6426 v 3.556 h -11.2268 c -1.1684,0 -2.2098,-0.0508 -2.7432,-0.1016 v 4.2672 c 0.5588,-0.0508 1.8542,-0.1016 2.7178,-0.1016 h 11.2522 c -0.0254,0.4826 -0.0254,0.9906 -0.0254,1.2954 h 4.3434 c 0,-0.5334 -0.0254,-1.6764 -0.0254,-2.2098 z m 24.8666,-16.3068 c -1.4478,-0.508 -3.81,-1.1176 -6.2738,-1.6764 l -0.2794,-0.0762 c -0.127,-0.0254 -0.2794,-0.0508 -0.4064,-0.0762 l -0.3048,-0.0762 c -0.508,-0.1016 -1.0414,-0.2286 -1.5494,-0.3302 l -0.2794,-0.0508 c -1.9304,-0.381 -3.7338,-0.7112 -4.9784,-0.8382 l -1.4224,3.7846 c 1.524,0.2032 3.683,0.6096 5.8928,1.0922 l 0.2794,0.0762 c 0.1778,0.0508 0.381,0.0762 0.5588,0.127 l 0.2794,0.0762 c 0.0508,0 0.1016,0 0.1524,0.0254 l 0.2794,0.0762 c 2.5908,0.6096 5.0546,1.27 6.4516,1.8034 z m -1.7272,6.985 c -1.6002,-0.5334 -3.9878,-1.1684 -6.4516,-1.7526 l -0.2794,-0.0508 c -0.1016,-0.0254 -0.1778,-0.0508 -0.2794,-0.0762 l -0.2794,-0.0508 -0.2794,-0.0508 c -2.1336,-0.4826 -4.2672,-0.9144 -5.8674,-1.1938 l -1.4478,3.8354 c 1.6002,0.2794 3.683,0.6858 5.7404,1.1684 l 0.2794,0.0762 c 0.0762,0 0.1778,0.0254 0.2794,0.0508 l 0.2794,0.0762 c 2.6416,0.635 5.2324,1.3462 6.7564,1.905 z m 1.143,7.874 c -2.032,-0.7112 -5.461,-1.651 -8.89,-2.4384 l -0.4064,-0.1016 -0.2794,-0.0508 c -0.0508,-0.0254 -0.0762,-0.0254 -0.127,-0.0508 l -0.2794,-0.0508 c -0.127,-0.0254 -0.2794,-0.0508 -0.4064,-0.1016 l -0.2794,-0.0508 c -1.905,-0.4064 -3.7084,-0.762 -5.1562,-0.9652 l -1.5748,3.9624 c 1.7018,0.254 4.1148,0.7366 6.5786,1.27 l 0.2794,0.0762 c 0.2032,0.0508 0.381,0.0762 0.5842,0.127 l 0.2794,0.0508 0.2794,0.0762 0.2794,0.0762 c 0.0508,0 0.0762,0.0254 0.127,0.0254 l 0.2794,0.0762 c 2.7686,0.6604 5.3594,1.3716 6.985,2.0066 z m 28.2956,0.6858 c -0.9398,-1.143 -2.54,-2.9464 -4.2418,-4.6736 l -0.1778,-0.2032 c -0.7874,-0.762 -1.6002,-1.524 -2.3622,-2.1844 1.651,-2.286 2.8448,-4.7752 3.683,-6.6548 0.2794,-0.635 0.8636,-1.6256 1.0922,-1.9558 l -2.6162,-1.9304 c -0.5842,0.2032 -1.6764,0.381 -2.9464,0.381 h -8.3058 c -0.7366,0 -2.4384,-0.0762 -3.302,-0.2032 v 4.5466 c 0.7112,-0.0508 2.159,-0.2286 3.302,-0.2286 h 7.62 c -0.5334,1.5748 -1.7526,3.7084 -3.4036,5.588 -2.2606,2.5146 -6.1722,5.715 -10.287,7.2136 l 3.2766,3.429 c 2.4892,-1.2192 4.9022,-2.9464 7.0866,-4.9022 l 0.1778,-0.1778 c 0.6604,-0.6096 1.2954,-1.2192 1.905,-1.8542 0.2286,0.2286 0.4572,0.4318 0.6604,0.6604 l 0.2032,0.1778 c 0.8128,0.8636 1.6002,1.7272 2.3368,2.6162 l 0.1778,0.1778 c 0.1524,0.2032 0.3048,0.4064 0.4826,0.6096 l 0.1524,0.1778 c 0.6858,0.8636 1.3208,1.7018 1.905,2.54 z m 18.034,-10.6172 c 3.33398,-2.222652 6.40918,-5.291582 6.604,-5.4864 l -3.3782,-3.2512 c -1.6002,1.9304 -4.699,4.699 -7.2644,6.2738 -2.8448,1.7272 -6.223,3.302 -10.8458,4.4704 l 1.9558,4.0132 c 0.5334,-0.1524 1.0668,-0.3302 1.6002,-0.508 l 0.2286,-0.0762 c 0.6604,-0.2286 1.2954,-0.4572 1.9304,-0.7112 l 0.254,-0.1016 c 1.524,-0.635 3.0226,-1.3208 4.3434,-2.032 v 7.366 c 0,1.2192 -0.1016,3.048 -0.2032,3.7338 h 4.9784 c -0.2032,-0.6858 -0.2032,-2.3876 -0.2032,-3.6068 z m 24.4602,2.6416 c -0.37523,-1.232891 -1.58545,-4.516541 -2.1336,-5.715 l -3.7084,1.2192 c 0.6858,1.4224 1.7526,4.4958 2.1082,5.7658 z m 3.2004,5.8928 c 1.6764,-2.1844 2.6162,-4.7498 3.2766,-7.1882 0.1778,-0.6096 0.3556,-1.3208 0.7112,-2.3114 l -4.3688,-1.4478 c -0.2286,3.1496 -1.4224,6.6294 -3.0988,8.7376 -2.1082,2.667 -5.6642,4.6228 -8.3566,5.3086 l 3.2766,3.4544 c 3.048,-1.1684 6.1976,-3.4544 8.5598,-6.5532 z m -8.7122,-4.318 c -0.508,-1.4732 -1.6764,-4.4958 -2.3876,-5.9182 l -3.7592,1.3462 c 0.6858,1.2192 1.905,4.6482 2.3368,6.0198 z m 30.607,-0.4572 h 6.1468 c 0.7366,0 1.7272,0.0762 2.4892,0.127 v -4.1402 c -0.5842,0.0508 -2.032,0.1524 -2.5654,0.1524 h -5.9182 v -3.3528 c 1.0414,-0.1524 1.9812,-0.3556 2.921,-0.5842 1.61059,-0.381888 -0.44757,0.09615 3.175,-0.7874 l -2.5654,-3.4798 c -1.2954,0.635 -3.556,1.143 -6.2484,1.5494 -2.5146,0.4064 -5.9182,0.4572 -8.001,0.4572 h -0.4826 -0.1778 l 0.9652,3.683 c 1.143,-0.0254 2.7686,-0.1016 4.4704,-0.2032 0.65164,-0.03343 1.30709,-0.06022 1.9558,-0.127 v 2.8448 h -6.731 c -0.8128,0 -1.7526,-0.0762 -2.5146,-0.1524 v 4.1402 c 0.6858,-0.0508 1.778,-0.127 2.54,-0.127 h 6.4008 c -0.6096,3.302 -2.4638,5.9182 -6.223,7.62 l 3.9878,2.7686 c 4.191,-2.5654 5.8928,-6.3246 6.3754,-10.3886 z"
     id="path2"
     style="display:none;font-weight:900;font-size:96px;font-family:'Glow Sans TC';-inkscape-font-specification:'Glow Sans TC Heavy';white-space:pre;fill:#ff7f7e;stroke:#000000;stroke-width:0.79375;stroke-linecap:round;stroke-linejoin:round"
     aria-label="ツクヨミスイッチ"
     sodipodi:nodetypes="ccccccccccccccccccccccsccccccccccccsscssccsccsccsccsccscccsccccccccccccccccccccccccccccccccccccccccccccccccccccccccccssccscccccccccccccccccccccscsccsccsccccccccccccccccccccsccsccccccsccccccsccscccc"
     inkscape:label="sub" />
  <path
     d="m 32.144481,66.207454 c -0.370505,-1.276184 -1.843146,-5.108786 -2.7432,-6.9596 l -3.9116,1.2954 c 0.8128,1.7018 2.2098,5.3594 2.7178,7.0612 z m 3.937,7.2644 c 2.0828,-2.7686 3.429,-7.0104 4.1148,-9.5504 0.1778,-0.6604 0.4572,-1.6256 0.787399,-2.3876 l -4.648199,-1.3462 c -0.4064,3.9116 -1.9812,8.4582 -3.8354,10.795 -2.6162,3.2766 -6.477,5.5118 -9.8552,6.4516 l 3.4798,3.6322 c 3.6322,-1.4224 7.2644,-4.0386 9.9568,-7.5946 z m -10.6172,-5.334 c -0.505817,-1.563435 -2.180856,-5.655183 -2.9718,-7.2898 l -4.0132,1.397 c 0.7874,1.4986 2.413,5.6896 2.9718,7.366 z m 34.874199,6.096 c 2.3368,-2.8702 3.556,-6.223 4.2418,-8.3312 0.254,-0.762 0.7112,-1.6256 1.0414,-2.1844 l -3.0988,-2.0066 c -0.6604,0.2032 -1.7018,0.381 -2.54,0.381 h -3.8862 c 0.381,-0.5842 0.9652,-1.6764 1.5494,-2.4892 l -4.572,-1.524 c -0.2794,0.9906 -0.9652,2.4384 -1.4224,3.1496 -1.3462,2.1336 -3.2258,5.1308 -7.7216,7.8994 l 3.5052,2.6924 c 2.767122,-1.9286 4.967584,-4.397265 6.3246,-6.1214 h 6.1468 c -0.3302,1.651 -1.778,4.4196 -3.3782,6.1976 -2.159,2.413 -4.6482,4.6228 -10.1346,6.2992 l 3.7084,3.4036 c 4.7752,-1.9558 7.7724,-4.3434 10.2362,-7.366 z m 29.3624,4.318 v -15.7988 c 0,-0.7366 0,-1.7018 0.0254,-2.0828 -0.5334,0.0508 -1.778,0.0762 -2.54,0.0762 h -11.176 c -1.3462,0 -3.2766,-0.0762 -4.2418,-0.1524 v 4.191 c 0.889,-0.0508 2.8956,-0.1016 4.2418,-0.1016 h 9.398 v 3.2258 h -9.017 c -1.2446,0 -2.7686,-0.0508 -3.7338,-0.127 v 4.0894 c 0.4572,0 1.27,-0.0254 2.1082,-0.0254 h 10.6426 v 3.556 h -11.2268 c -1.1684,0 -2.2098,-0.0508 -2.7432,-0.1016 v 4.2672 c 0.5588,-0.0508 1.8542,-0.1016 2.7178,-0.1016 h 11.2522 c -0.0254,0.4826 -0.0254,0.9906 -0.0254,1.2954 h 4.3434 c 0,-0.5334 -0.0254,-1.6764 -0.0254,-2.2098 z m 24.8666,-16.3068 c -1.4478,-0.508 -3.81,-1.1176 -6.2738,-1.6764 l -0.2794,-0.0762 c -0.127,-0.0254 -0.2794,-0.0508 -0.4064,-0.0762 l -0.3048,-0.0762 c -0.508,-0.1016 -1.0414,-0.2286 -1.5494,-0.3302 l -0.2794,-0.0508 c -1.9304,-0.381 -3.7338,-0.7112 -4.9784,-0.8382 l -1.4224,3.7846 c 1.524,0.2032 3.683,0.6096 5.8928,1.0922 l 0.2794,0.0762 c 0.1778,0.0508 0.381,0.0762 0.5588,0.127 l 0.2794,0.0762 c 0.0508,0 0.1016,0 0.1524,0.0254 l 0.2794,0.0762 c 2.5908,0.6096 5.0546,1.27 6.4516,1.8034 z m -1.7272,6.985 c -1.6002,-0.5334 -3.9878,-1.1684 -6.4516,-1.7526 l -0.2794,-0.0508 c -0.1016,-0.0254 -0.1778,-0.0508 -0.2794,-0.0762 l -0.2794,-0.0508 -0.2794,-0.0508 c -2.1336,-0.4826 -4.2672,-0.9144 -5.8674,-1.1938 l -1.4478,3.8354 c 1.6002,0.2794 3.683,0.6858 5.7404,1.1684 l 0.2794,0.0762 c 0.0762,0 0.1778,0.0254 0.2794,0.0508 l 0.2794,0.0762 c 2.6416,0.635 5.2324,1.3462 6.7564,1.905 z m 1.143,7.874 c -2.032,-0.7112 -5.461,-1.651 -8.89,-2.4384 l -0.4064,-0.1016 -0.2794,-0.0508 c -0.0508,-0.0254 -0.0762,-0.0254 -0.127,-0.0508 l -0.2794,-0.0508 c -0.127,-0.0254 -0.2794,-0.0508 -0.4064,-0.1016 l -0.2794,-0.0508 c -1.905,-0.4064 -3.7084,-0.762 -5.1562,-0.9652 l -1.5748,3.9624 c 1.7018,0.254 4.1148,0.7366 6.5786,1.27 l 0.2794,0.0762 c 0.2032,0.0508 0.381,0.0762 0.5842,0.127 l 0.2794,0.0508 0.2794,0.0762 0.2794,0.0762 c 0.0508,0 0.0762,0.0254 0.127,0.0254 l 0.2794,0.0762 c 2.7686,0.6604 5.3594,1.3716 6.985,2.0066 z m 28.2956,0.6858 c -0.9398,-1.143 -2.54,-2.9464 -4.2418,-4.6736 l -0.1778,-0.2032 c -0.7874,-0.762 -1.6002,-1.524 -2.3622,-2.1844 1.651,-2.286 2.8448,-4.7752 3.683,-6.6548 0.2794,-0.635 0.8636,-1.6256 1.0922,-1.9558 l -2.6162,-1.9304 c -0.5842,0.2032 -1.6764,0.381 -2.9464,0.381 h -8.3058 c -0.7366,0 -2.4384,-0.0762 -3.302,-0.2032 v 4.5466 c 0.7112,-0.0508 2.159,-0.2286 3.302,-0.2286 h 7.62 c -0.5334,1.5748 -1.7526,3.7084 -3.4036,5.588 -2.2606,2.5146 -6.1722,5.715 -10.287,7.2136 l 3.2766,3.429 c 2.4892,-1.2192 4.9022,-2.9464 7.0866,-4.9022 l 0.1778,-0.1778 c 0.6604,-0.6096 1.2954,-1.2192 1.905,-1.8542 0.2286,0.2286 0.4572,0.4318 0.6604,0.6604 l 0.2032,0.1778 c 0.8128,0.8636 1.6002,1.7272 2.3368,2.6162 l 0.1778,0.1778 c 0.1524,0.2032 0.3048,0.4064 0.4826,0.6096 l 0.1524,0.1778 c 0.6858,0.8636 1.3208,1.7018 1.905,2.54 z m 18.034,-10.6172 c 3.33398,-2.222652 6.40918,-5.291582 6.604,-5.4864 l -3.3782,-3.2512 c -1.6002,1.9304 -4.699,4.699 -7.2644,6.2738 -2.8448,1.7272 -6.223,3.302 -10.8458,4.4704 l 1.9558,4.0132 c 0.5334,-0.1524 1.0668,-0.3302 1.6002,-0.508 l 0.2286,-0.0762 c 0.6604,-0.2286 1.2954,-0.4572 1.9304,-0.7112 l 0.254,-0.1016 c 1.524,-0.635 3.0226,-1.3208 4.3434,-2.032 v 7.366 c 0,1.2192 -0.1016,3.048 -0.2032,3.7338 h 4.9784 c -0.2032,-0.6858 -0.2032,-2.3876 -0.2032,-3.6068 z m 24.4602,2.6416 c -0.37523,-1.232891 -1.58545,-4.516541 -2.1336,-5.715 l -3.7084,1.2192 c 0.6858,1.4224 1.7526,4.4958 2.1082,5.7658 z m 3.2004,5.8928 c 1.6764,-2.1844 2.6162,-4.7498 3.2766,-7.1882 0.1778,-0.6096 0.3556,-1.3208 0.7112,-2.3114 l -4.3688,-1.4478 c -0.2286,3.1496 -1.4224,6.6294 -3.0988,8.7376 -2.1082,2.667 -5.6642,4.6228 -8.3566,5.3086 l 3.2766,3.4544 c 3.048,-1.1684 6.1976,-3.4544 8.5598,-6.5532 z m -8.7122,-4.318 c -0.508,-1.4732 -1.6764,-4.4958 -2.3876,-5.9182 l -3.7592,1.3462 c 0.6858,1.2192 1.905,4.6482 2.3368,6.0198 z m 30.607,-0.4572 h 6.1468 c 0.7366,0 1.7272,0.0762 2.4892,0.127 v -4.1402 c -0.5842,0.0508 -2.032,0.1524 -2.5654,0.1524 h -5.9182 v -3.3528 c 1.0414,-0.1524 1.9812,-0.3556 2.921,-0.5842 1.61059,-0.381888 -0.44757,0.09615 3.175,-0.7874 l -2.5654,-3.4798 c -1.2954,0.635 -3.556,1.143 -6.2484,1.5494 -2.5146,0.4064 -5.9182,0.4572 -8.001,0.4572 h -0.4826 -0.1778 l 0.9652,3.683 c 1.143,-0.0254 2.7686,-0.1016 4.4704,-0.2032 0.65164,-0.03343 1.30709,-0.06022 1.9558,-0.127 v 2.8448 h -6.731 c -0.8128,0 -1.7526,-0.0762 -2.5146,-0.1524 v 4.1402 c 0.6858,-0.0508 1.778,-0.127 2.54,-0.127 h 6.4008 c -0.6096,3.302 -2.4638,5.9182 -6.223,7.62 l 3.9878,2.7686 c 4.191,-2.5654 5.8928,-6.3246 6.3754,-10.3886 z"
     id="path3"
     style="font-weight:900;font-size:96px;font-family:'Glow Sans TC';-inkscape-font-specification:'Glow Sans TC Heavy';white-space:pre;display:inline;fill:#ff7f7e;stroke:none;stroke-width:0.79375;stroke-linecap:round;stroke-linejoin:round;stroke-opacity:1"
     aria-label="ツクヨミスイッチ"
     sodipodi:nodetypes="ccccccccccccccccccccccsccccccccccccsscssccsccsccsccsccscccsccccccccccccccccccccccccccccccccccccccccccccccccccccccccccssccscccccccccccccccccccccscsccsccsccccccccccccccccccccsccsccccccsccccccsccscccc"
     inkscape:label="sub" />
  <g
     inkscape:label="Layer 1"
     inkscape:groupmode="layer"
     id="layer1"
     style="display:inline">
    <path
       d="m 32.144481,66.207454 c -0.370505,-1.276184 -1.843146,-5.108786 -2.7432,-6.9596 l -3.9116,1.2954 c 0.8128,1.7018 2.2098,5.3594 2.7178,7.0612 z m 3.937,7.2644 c 2.0828,-2.7686 3.429,-7.0104 4.1148,-9.5504 0.1778,-0.6604 0.4572,-1.6256 0.787399,-2.3876 l -4.648199,-1.3462 c -0.4064,3.9116 -1.9812,8.4582 -3.8354,10.795 -2.6162,3.2766 -6.477,5.5118 -9.8552,6.4516 l 3.4798,3.6322 c 3.6322,-1.4224 7.2644,-4.0386 9.9568,-7.5946 z m -10.6172,-5.334 c -0.505817,-1.563435 -2.180856,-5.655183 -2.9718,-7.2898 l -4.0132,1.397 c 0.7874,1.4986 2.413,5.6896 2.9718,7.366 z m 34.874199,6.096 c 2.3368,-2.8702 3.556,-6.223 4.2418,-8.3312 0.254,-0.762 0.7112,-1.6256 1.0414,-2.1844 l -3.0988,-2.0066 c -0.6604,0.2032 -1.7018,0.381 -2.54,0.381 h -3.8862 c 0.381,-0.5842 0.9652,-1.6764 1.5494,-2.4892 l -4.572,-1.524 c -0.2794,0.9906 -0.9652,2.4384 -1.4224,3.1496 -1.3462,2.1336 -3.2258,5.1308 -7.7216,7.8994 l 3.5052,2.6924 c 2.767122,-1.9286 4.967584,-4.397265 6.3246,-6.1214 h 6.1468 c -0.3302,1.651 -1.778,4.4196 -3.3782,6.1976 -2.159,2.413 -4.6482,4.6228 -10.1346,6.2992 l 3.7084,3.4036 c 4.7752,-1.9558 7.7724,-4.3434 10.2362,-7.366 z m 29.3624,4.318 v -15.7988 c 0,-0.7366 0,-1.7018 0.0254,-2.0828 -0.5334,0.0508 -1.778,0.0762 -2.54,0.0762 h -11.176 c -1.3462,0 -3.2766,-0.0762 -4.2418,-0.1524 v 4.191 c 0.889,-0.0508 2.8956,-0.1016 4.2418,-0.1016 h 9.398 v 3.2258 h -9.017 c -1.2446,0 -2.7686,-0.0508 -3.7338,-0.127 v 4.0894 c 0.4572,0 1.27,-0.0254 2.1082,-0.0254 h 10.6426 v 3.556 h -11.2268 c -1.1684,0 -2.2098,-0.0508 -2.7432,-0.1016 v 4.2672 c 0.5588,-0.0508 1.8542,-0.1016 2.7178,-0.1016 h 11.2522 c -0.0254,0.4826 -0.0254,0.9906 -0.0254,1.2954 h 4.3434 c 0,-0.5334 -0.0254,-1.6764 -0.0254,-2.2098 z m 24.8666,-16.3068 c -1.4478,-0.508 -3.81,-1.1176 -6.2738,-1.6764 l -0.2794,-0.0762 c -0.127,-0.0254 -0.2794,-0.0508 -0.4064,-0.0762 l -0.3048,-0.0762 c -0.508,-0.1016 -1.0414,-0.2286 -1.5494,-0.3302 l -0.2794,-0.0508 c -1.9304,-0.381 -3.7338,-0.7112 -4.9784,-0.8382 l -1.4224,3.7846 c 1.524,0.2032 3.683,0.6096 5.8928,1.0922 l 0.2794,0.0762 c 0.1778,0.0508 0.381,0.0762 0.5588,0.127 l 0.2794,0.0762 c 0.0508,0 0.1016,0 0.1524,0.0254 l 0.2794,0.0762 c 2.5908,0.6096 5.0546,1.27 6.4516,1.8034 z m -1.7272,6.985 c -1.6002,-0.5334 -3.9878,-1.1684 -6.4516,-1.7526 l -0.2794,-0.0508 c -0.1016,-0.0254 -0.1778,-0.0508 -0.2794,-0.0762 l -0.2794,-0.0508 -0.2794,-0.0508 c -2.1336,-0.4826 -4.2672,-0.9144 -5.8674,-1.1938 l -1.4478,3.8354 c 1.6002,0.2794 3.683,0.6858 5.7404,1.1684 l 0.2794,0.0762 c 0.0762,0 0.1778,0.0254 0.2794,0.0508 l 0.2794,0.0762 c 2.6416,0.635 5.2324,1.3462 6.7564,1.905 z m 1.143,7.874 c -2.032,-0.7112 -5.461,-1.651 -8.89,-2.4384 l -0.4064,-0.1016 -0.2794,-0.0508 c -0.0508,-0.0254 -0.0762,-0.0254 -0.127,-0.0508 l -0.2794,-0.0508 c -0.127,-0.0254 -0.2794,-0.0508 -0.4064,-0.1016 l -0.2794,-0.0508 c -1.905,-0.4064 -3.7084,-0.762 -5.1562,-0.9652 l -1.5748,3.9624 c 1.7018,0.254 4.1148,0.7366 6.5786,1.27 l 0.2794,0.0762 c 0.2032,0.0508 0.381,0.0762 0.5842,0.127 l 0.2794,0.0508 0.2794,0.0762 0.2794,0.0762 c 0.0508,0 0.0762,0.0254 0.127,0.0254 l 0.2794,0.0762 c 2.7686,0.6604 5.3594,1.3716 6.985,2.0066 z m 28.2956,0.6858 c -0.9398,-1.143 -2.54,-2.9464 -4.2418,-4.6736 l -0.1778,-0.2032 c -0.7874,-0.762 -1.6002,-1.524 -2.3622,-2.1844 1.651,-2.286 2.8448,-4.7752 3.683,-6.6548 0.2794,-0.635 0.8636,-1.6256 1.0922,-1.9558 l -2.6162,-1.9304 c -0.5842,0.2032 -1.6764,0.381 -2.9464,0.381 h -8.3058 c -0.7366,0 -2.4384,-0.0762 -3.302,-0.2032 v 4.5466 c 0.7112,-0.0508 2.159,-0.2286 3.302,-0.2286 h 7.62 c -0.5334,1.5748 -1.7526,3.7084 -3.4036,5.588 -2.2606,2.5146 -6.1722,5.715 -10.287,7.2136 l 3.2766,3.429 c 2.4892,-1.2192 4.9022,-2.9464 7.0866,-4.9022 l 0.1778,-0.1778 c 0.6604,-0.6096 1.2954,-1.2192 1.905,-1.8542 0.2286,0.2286 0.4572,0.4318 0.6604,0.6604 l 0.2032,0.1778 c 0.8128,0.8636 1.6002,1.7272 2.3368,2.6162 l 0.1778,0.1778 c 0.1524,0.2032 0.3048,0.4064 0.4826,0.6096 l 0.1524,0.1778 c 0.6858,0.8636 1.3208,1.7018 1.905,2.54 z m 18.034,-10.6172 c 3.33398,-2.222652 6.40918,-5.291582 6.604,-5.4864 l -3.3782,-3.2512 c -1.6002,1.9304 -4.699,4.699 -7.2644,6.2738 -2.8448,1.7272 -6.223,3.302 -10.8458,4.4704 l 1.9558,4.0132 c 0.5334,-0.1524 1.0668,-0.3302 1.6002,-0.508 l 0.2286,-0.0762 c 0.6604,-0.2286 1.2954,-0.4572 1.9304,-0.7112 l 0.254,-0.1016 c 1.524,-0.635 3.0226,-1.3208 4.3434,-2.032 v 7.366 c 0,1.2192 -0.1016,3.048 -0.2032,3.7338 h 4.9784 c -0.2032,-0.6858 -0.2032,-2.3876 -0.2032,-3.6068 z m 24.4602,2.6416 c -0.37523,-1.232891 -1.58545,-4.516541 -2.1336,-5.715 l -3.7084,1.2192 c 0.6858,1.4224 1.7526,4.4958 2.1082,5.7658 z m 3.2004,5.8928 c 1.6764,-2.1844 2.6162,-4.7498 3.2766,-7.1882 0.1778,-0.6096 0.3556,-1.3208 0.7112,-2.3114 l -4.3688,-1.4478 c -0.2286,3.1496 -1.4224,6.6294 -3.0988,8.7376 -2.1082,2.667 -5.6642,4.6228 -8.3566,5.3086 l 3.2766,3.4544 c 3.048,-1.1684 6.1976,-3.4544 8.5598,-6.5532 z m -8.7122,-4.318 c -0.508,-1.4732 -1.6764,-4.4958 -2.3876,-5.9182 l -3.7592,1.3462 c 0.6858,1.2192 1.905,4.6482 2.3368,6.0198 z m 30.607,-0.4572 h 6.1468 c 0.7366,0 1.7272,0.0762 2.4892,0.127 v -4.1402 c -0.5842,0.0508 -2.032,0.1524 -2.5654,0.1524 h -5.9182 v -3.3528 c 1.0414,-0.1524 1.9812,-0.3556 2.921,-0.5842 1.61059,-0.381888 -0.44757,0.09615 3.175,-0.7874 l -2.5654,-3.4798 c -1.2954,0.635 -3.556,1.143 -6.2484,1.5494 -2.5146,0.4064 -5.9182,0.4572 -8.001,0.4572 h -0.4826 -0.1778 l 0.9652,3.683 c 1.143,-0.0254 2.7686,-0.1016 4.4704,-0.2032 0.65164,-0.03343 1.30709,-0.06022 1.9558,-0.127 v 2.8448 h -6.731 c -0.8128,0 -1.7526,-0.0762 -2.5146,-0.1524 v 4.1402 c 0.6858,-0.0508 1.778,-0.127 2.54,-0.127 h 6.4008 c -0.6096,3.302 -2.4638,5.9182 -6.223,7.62 l 3.9878,2.7686 c 4.191,-2.5654 5.8928,-6.3246 6.3754,-10.3886 z"
       id="text1"
       style="display:inline;font-weight:900;font-size:96px;font-family:'Glow Sans TC';-inkscape-font-specification:'Glow Sans TC Heavy';white-space:pre;fill:url(#pattern3);fill-opacity:1;stroke:#000000;stroke-width:0.79375;stroke-linecap:round;stroke-linejoin:round;stroke-opacity:0"
       aria-label="ツクヨミスイッチ"
       sodipodi:nodetypes="ccccccccccccccccccccccsccccccccccccsscssccsccsccsccsccscccsccccccccccccccccccccccccccccccccccccccccccccccccccccccccccssccscccccccccccccccccccccscsccsccsccccccccccccccccccccsccsccccccsccccccsccscccc"
       inkscape:label="stripe" />
  </g>
  <g
     id="g12">
    <rect
       style="fill:#000000;stroke-width:0.79375;stroke-linecap:round;stroke-linejoin:round;stroke-opacity:0"
       id="rect3"
       width="16.208824"
       height="10.822058"
       x="16.111765"
       y="58.963234" />
    <rect
       style="fill:#000000;stroke-width:0.79375;stroke-linecap:round;stroke-linejoin:round;stroke-opacity:0"
       id="rect4"
       width="10.336765"
       height="23.245586"
       x="82.354408"
       y="58.866173" />
    <rect
       style="fill:#000000;stroke-width:0.79375;stroke-linecap:round;stroke-linejoin:round;stroke-opacity:0"
       id="rect5"
       width="15.373333"
       height="8.27003"
       x="148.87036"
       y="-36.412304"
       transform="rotate(40.679533)" />
    <rect
       style="fill:#000000;stroke-width:0.79375;stroke-linecap:round;stroke-linejoin:round;stroke-opacity:0"
       id="rect7"
       width="6.6228867"
       height="8.7504463"
       x="154.96869"
       y="73.675323" />
    <rect
       style="fill:#000000;stroke-width:0.79375;stroke-linecap:round;stroke-linejoin:round;stroke-opacity:0"
       id="rect8"
       width="14.412499"
       height="8.3729753"
       x="143.96227"
       y="110.56626"
       transform="rotate(-16.047286)" />
    <rect
       style="fill:#000000;stroke-width:0.79375;stroke-linecap:round;stroke-linejoin:round;stroke-opacity:0"
       id="rect9"
       width="12.833988"
       height="18.393095"
       x="209.94208"
       y="55.796963" />
    <rect
       style="fill:#386eab;fill-opacity:1;stroke-width:0.79375;stroke-linecap:round;stroke-linejoin:round;stroke-opacity:0"
       id="rect10"
       width="2.7661762"
       height="6.4786763"
       x="80.862007"
       y="20.505993"
       transform="rotate(32.993292)" />
    <rect
       style="fill:#386eab;fill-opacity:1;stroke-width:0.833738;stroke-linecap:round;stroke-linejoin:round;stroke-opacity:0"
       id="rect11"
       width="1.8538202"
       height="5.4943986"
       x="81.815071"
       y="30.508547"
       transform="matrix(0.91201206,0.41016338,-0.46290972,0.88640543,0,0)" />
    <rect
       style="fill:#386eab;fill-opacity:1;stroke-width:0.79375;stroke-linecap:round;stroke-linejoin:round;stroke-opacity:0"
       id="rect12"
       width="2.9168153"
       height="4.5982738"
       x="56.895058"
       y="61.218807" />
  </g>
</svg>
