<?xml version="1.0" encoding="UTF-8" standalone="no"?>
<svg
   role="img"
   width="24"
   height="24"
   viewBox="0 0 24 24"
   aria-labelledby="backAltIconTitle"
   stroke="#2329d6"
   stroke-width="2"
   stroke-linecap="round"
   stroke-linejoin="round"
   fill="none"
   color="#2329d6"
   version="1.1"
   id="svg1"
   xml:space="preserve"
   xmlns="http://www.w3.org/2000/svg"
   xmlns:svg="http://www.w3.org/2000/svg"><defs
     id="defs1"><style
       id="style1">
      .a, .b {
        fill: none;
        stroke-linecap: round;
        stroke-linejoin: round;
        stroke-width: 2px;
      }

      .a {
        stroke: #231815;
      }

      .b {
        stroke: #000;
      }
    </style><style
       id="style1-8">
      .a, .b {
        fill: none;
        stroke: #231815;
        stroke-width: 2px;
      }

      .b {
        stroke-linecap: round;
        stroke-linejoin: round;
      }
    </style></defs><title
     id="backAltIconTitle">Back</title><g
     id="g2"
     transform="matrix(0.58628237,0,0,0.58628237,-2.078405,-2.0766399)"
     style="stroke:#fff;stroke-width:2.07238;stroke-dasharray:none;stroke-opacity:1"><path
       class="a"
       d="M 24,28.6 A 4.52,4.52 0 1 1 28.23,25.73 4.44,4.44 0 0 1 24,28.6 Z"
       id="path1"
       style="fill:#999;fill-opacity:1;stroke:none;stroke-width:2.07238;stroke-dasharray:none;stroke-opacity:0.6" /><path
       class="b"
       d="m 35,21.67 1.34,-1.1 a 1.55,1.55 0 0 0 0.51,-2 L 35.17,15.66 A 1.49,1.49 0 0 0 33.31,15 l -1.91,0.73 a 1.45,1.45 0 0 1 -1.35,-0.16 10.73,10.73 0 0 0 -1.75,-1 1.39,1.39 0 0 1 -0.82,-1.09 l -0.34,-2 a 1.47,1.47 0 0 0 -1.46,-1.24 h -3.36 a 1.47,1.47 0 0 0 -1.46,1.24 l -0.34,2 a 1.4,1.4 0 0 1 -0.82,1.09 11.26,11.26 0 0 0 -1.76,1 1.42,1.42 0 0 1 -1.34,0.16 L 14.69,15 a 1.49,1.49 0 0 0 -1.81,0.65 l -1.68,2.9 a 1.48,1.48 0 0 0 0.35,1.89 l 1.53,1.25 a 1.49,1.49 0 0 1 0.53,1.31 12.51,12.51 0 0 0 0,2 1.51,1.51 0 0 1 -0.54,1.29 l -1.52,1.24 a 1.49,1.49 0 0 0 -0.34,1.89 l 1.68,2.91 a 1.49,1.49 0 0 0 1.81,0.65 l 1.76,-0.67 a 1.46,1.46 0 0 1 1.36,0.16 10.48,10.48 0 0 0 1.92,1.12 1.47,1.47 0 0 1 0.83,1.11 l 0.3,1.84 a 1.47,1.47 0 0 0 1.46,1.24 h 3.36 a 1.47,1.47 0 0 0 1.46,-1.24 l 0.3,-1.84 a 1.5,1.5 0 0 1 0.83,-1.12 10.2,10.2 0 0 0 1.92,-1.11 1.43,1.43 0 0 1 1.36,-0.16 l 1.76,0.67 a 1.49,1.49 0 0 0 1.81,-0.65 l 1.68,-2.91 A 1.48,1.48 0 0 0 36.46,27.53 L 35,26.33 A 1.48,1.48 0 0 1 34.42,25 a 9,9 0 0 0 0,-2 1.48,1.48 0 0 1 0.58,-1.33 z"
       id="path2"
       style="stroke:#fff;stroke-width:2.07238;stroke-dasharray:none;stroke-opacity:1" /></g></svg>
